<svg xmlns="http://www.w3.org/2000/svg" viewBox="0 0 420.43 246.98"><defs><style>.cls-1{fill:#fff;}</style></defs><g id="Layer_2" data-name="Layer 2"><g id="Layer_1-2" data-name="Layer 1"><path class="cls-1" d="M205.42,111.94c.05,1,0,49.43,0,49.43h-42s0,53.34,0,63.2,9,20.67,19.63,20.67,19.5-10.63,19.5-20.68V199.81h2.85s0,12.81,0,24.57S195.24,247,183,247s-22.42-10.73-22.42-22.59,0-99.37,0-112.46S170.36,88.37,183,88.37C195.32,88.37,205.37,98.76,205.42,111.94ZM183,90c-10.78,0-19.6,10.63-19.6,21.65,0,4,0,48.78,0,48.78h39.12V111.66C202.53,100.65,193.81,90,183,90ZM0,90.85v-.94H20.91V38.21h2.95v51.7H60.68v.94l-36.75.07-.07,117.35c0,14.55.75,22,3.71,27.55,2.71,5.27,7.15,8.68,14.31,8.68,10.36,0,16.28-5.89,21-13.94l.49.31C57.67,241.71,51,247,41.14,247c-7.4,0-12.83-3.41-16-9.59-3-5.59-4.19-13-4.19-27.88V90.85ZM278.73,0H202.27V.91h36.79V244.58H242V.91h36.72Zm57.59,0h-40V244.58h41.61v-.93H299.44V114h33.37v-.91H299.44V.91h36.88Zm36.46,244.56V7l44.43,238.5h3.22V0h-3.11V238.19L373.19,0h-3.55V244.58Zm-244.11.06V126c0-14.87-1.24-22.3-4.19-27.88-3.21-6.19-8.64-9.6-16-9.6-9.58,0-16.13,5-21.71,15.16-.17.31,0-102.81,0-102.81H83.86l0,243.78h2.89V104.9C91.41,96.84,97.33,91,107.69,91c7.16,0,11.6,3.41,14.32,8.67,3,5.57,3.7,13,3.7,27.56l-.06,117.35"/></g></g></svg>